<?xml version="1.0" standalone="no"?>
<!DOCTYPE svg PUBLIC "-//W3C//DTD SVG 20010904//EN"
 "http://www.w3.org/TR/2001/REC-SVG-20010904/DTD/svg10.dtd">
<svg version="1.0" xmlns="http://www.w3.org/2000/svg"
 width="120.000000pt" height="120.000000pt" viewBox="0 0 120.000000 120.000000"
 preserveAspectRatio="xMidYMid meet">

<g transform="translate(0.000000,120.000000) scale(0.100000,-0.100000)"
fill="#2BE080" stroke="none">
<path d="M452 1180 c-109 -29 -187 -74 -272 -160 -87 -86 -131 -163 -160 -276
-36 -141 -18 -294 52 -427 42 -81 164 -203 245 -245 133 -70 286 -88 427 -52
113 29 190 73 276 160 87 86 131 163 160 276 36 141 18 294 -52 427 -42 81
-164 203 -245 245 -132 69 -291 88 -431 52z m271 -25 c37 -8 99 -31 138 -51
347 -183 414 -631 135 -909 -330 -327 -891 -137 -958 325 -49 335 215 646 552
649 36 0 95 -6 133 -14z"/>
<path d="M758 718 c-25 -24 -83 -80 -129 -125 l-84 -82 -75 55 -74 54 -23 -28
c-12 -15 -22 -29 -23 -32 0 -3 45 -39 100 -79 l101 -73 154 147 c85 81 155
150 155 154 -1 10 -38 51 -47 51 -5 0 -29 -19 -55 -42z"/>
</g>
</svg>
